<mxfile host="app.diagrams.net" agent="Mozilla/5.0 (X11; Linux x86_64) AppleWebKit/537.36 (KHTML, like Gecko) Chrome/130.0.0.0 Safari/537.36" version="24.8.2">
  <diagram name="Seite-1" id="910xj1Nad1AQ0VClgu9T">
    <mxGraphModel dx="2185" dy="753" grid="1" gridSize="10" guides="1" tooltips="1" connect="1" arrows="1" fold="1" page="1" pageScale="1" pageWidth="827" pageHeight="1169" math="0" shadow="0">
      <root>
        <mxCell id="0" />
        <mxCell id="1" parent="0" />
        <mxCell id="d2WEZ7_jx0w2NvavsIym-3" style="edgeStyle=orthogonalEdgeStyle;rounded=0;orthogonalLoop=1;jettySize=auto;html=1;endArrow=none;endFill=0;" edge="1" parent="1" source="d2WEZ7_jx0w2NvavsIym-1" target="d2WEZ7_jx0w2NvavsIym-2">
          <mxGeometry relative="1" as="geometry" />
        </mxCell>
        <mxCell id="d2WEZ7_jx0w2NvavsIym-1" value="real" style="rounded=0;whiteSpace=wrap;html=1;" vertex="1" parent="1">
          <mxGeometry x="160" y="40" width="120" height="60" as="geometry" />
        </mxCell>
        <mxCell id="d2WEZ7_jx0w2NvavsIym-8" style="edgeStyle=orthogonalEdgeStyle;rounded=0;orthogonalLoop=1;jettySize=auto;html=1;endArrow=none;endFill=0;" edge="1" parent="1" target="d2WEZ7_jx0w2NvavsIym-16">
          <mxGeometry relative="1" as="geometry">
            <mxPoint x="237" y="200" as="sourcePoint" />
            <mxPoint x="290" y="270" as="targetPoint" />
            <Array as="points">
              <mxPoint x="237" y="240" />
              <mxPoint x="270" y="240" />
            </Array>
          </mxGeometry>
        </mxCell>
        <mxCell id="d2WEZ7_jx0w2NvavsIym-9" style="edgeStyle=orthogonalEdgeStyle;rounded=0;orthogonalLoop=1;jettySize=auto;html=1;endArrow=none;endFill=0;" edge="1" parent="1" source="d2WEZ7_jx0w2NvavsIym-2" target="d2WEZ7_jx0w2NvavsIym-5">
          <mxGeometry relative="1" as="geometry">
            <Array as="points">
              <mxPoint x="220" y="240" />
              <mxPoint x="140" y="240" />
            </Array>
          </mxGeometry>
        </mxCell>
        <mxCell id="d2WEZ7_jx0w2NvavsIym-10" style="edgeStyle=orthogonalEdgeStyle;rounded=0;orthogonalLoop=1;jettySize=auto;html=1;exitX=0.25;exitY=1;exitDx=0;exitDy=0;endArrow=none;endFill=0;" edge="1" parent="1" source="d2WEZ7_jx0w2NvavsIym-2" target="d2WEZ7_jx0w2NvavsIym-4">
          <mxGeometry relative="1" as="geometry">
            <Array as="points">
              <mxPoint x="190" y="230" />
              <mxPoint y="230" />
            </Array>
          </mxGeometry>
        </mxCell>
        <mxCell id="d2WEZ7_jx0w2NvavsIym-11" style="edgeStyle=orthogonalEdgeStyle;rounded=0;orthogonalLoop=1;jettySize=auto;html=1;exitX=0.75;exitY=1;exitDx=0;exitDy=0;endArrow=none;endFill=0;" edge="1" parent="1" source="d2WEZ7_jx0w2NvavsIym-2" target="d2WEZ7_jx0w2NvavsIym-7">
          <mxGeometry relative="1" as="geometry">
            <Array as="points">
              <mxPoint x="250" y="220" />
              <mxPoint x="440" y="220" />
            </Array>
          </mxGeometry>
        </mxCell>
        <mxCell id="d2WEZ7_jx0w2NvavsIym-2" value="mant" style="rounded=0;whiteSpace=wrap;html=1;" vertex="1" parent="1">
          <mxGeometry x="160" y="140" width="120" height="60" as="geometry" />
        </mxCell>
        <mxCell id="d2WEZ7_jx0w2NvavsIym-13" style="edgeStyle=orthogonalEdgeStyle;rounded=0;orthogonalLoop=1;jettySize=auto;html=1;endArrow=none;endFill=0;" edge="1" parent="1" source="d2WEZ7_jx0w2NvavsIym-4">
          <mxGeometry relative="1" as="geometry">
            <mxPoint y="378" as="targetPoint" />
          </mxGeometry>
        </mxCell>
        <mxCell id="d2WEZ7_jx0w2NvavsIym-4" value="sign" style="rounded=0;whiteSpace=wrap;html=1;" vertex="1" parent="1">
          <mxGeometry x="-60" y="270" width="120" height="60" as="geometry" />
        </mxCell>
        <mxCell id="d2WEZ7_jx0w2NvavsIym-19" style="edgeStyle=orthogonalEdgeStyle;rounded=0;orthogonalLoop=1;jettySize=auto;html=1;endArrow=none;endFill=0;" edge="1" parent="1" source="d2WEZ7_jx0w2NvavsIym-5" target="d2WEZ7_jx0w2NvavsIym-14">
          <mxGeometry relative="1" as="geometry" />
        </mxCell>
        <mxCell id="d2WEZ7_jx0w2NvavsIym-5" value="int" style="rounded=0;whiteSpace=wrap;html=1;" vertex="1" parent="1">
          <mxGeometry x="80" y="250" width="120" height="60" as="geometry" />
        </mxCell>
        <mxCell id="d2WEZ7_jx0w2NvavsIym-18" style="edgeStyle=orthogonalEdgeStyle;rounded=0;orthogonalLoop=1;jettySize=auto;html=1;endArrow=none;endFill=0;" edge="1" parent="1" source="d2WEZ7_jx0w2NvavsIym-7" target="d2WEZ7_jx0w2NvavsIym-17">
          <mxGeometry relative="1" as="geometry" />
        </mxCell>
        <mxCell id="d2WEZ7_jx0w2NvavsIym-7" value="frac" style="rounded=0;whiteSpace=wrap;html=1;" vertex="1" parent="1">
          <mxGeometry x="380" y="270" width="120" height="60" as="geometry" />
        </mxCell>
        <mxCell id="d2WEZ7_jx0w2NvavsIym-14" value="1" style="text;html=1;align=center;verticalAlign=middle;resizable=0;points=[];autosize=1;strokeColor=none;fillColor=none;" vertex="1" parent="1">
          <mxGeometry x="125" y="378" width="30" height="30" as="geometry" />
        </mxCell>
        <mxCell id="d2WEZ7_jx0w2NvavsIym-16" value="." style="text;html=1;align=center;verticalAlign=middle;resizable=0;points=[];autosize=1;strokeColor=none;fillColor=none;" vertex="1" parent="1">
          <mxGeometry x="256" y="370" width="30" height="30" as="geometry" />
        </mxCell>
        <mxCell id="d2WEZ7_jx0w2NvavsIym-17" value="5" style="text;html=1;align=center;verticalAlign=middle;resizable=0;points=[];autosize=1;strokeColor=none;fillColor=none;" vertex="1" parent="1">
          <mxGeometry x="425" y="378" width="30" height="30" as="geometry" />
        </mxCell>
        <mxCell id="d2WEZ7_jx0w2NvavsIym-22" style="edgeStyle=orthogonalEdgeStyle;rounded=0;orthogonalLoop=1;jettySize=auto;html=1;endArrow=none;endFill=0;" edge="1" parent="1" source="d2WEZ7_jx0w2NvavsIym-23" target="d2WEZ7_jx0w2NvavsIym-24">
          <mxGeometry relative="1" as="geometry" />
        </mxCell>
        <mxCell id="d2WEZ7_jx0w2NvavsIym-41" style="edgeStyle=orthogonalEdgeStyle;rounded=0;orthogonalLoop=1;jettySize=auto;html=1;entryX=0.5;entryY=1;entryDx=0;entryDy=0;endArrow=none;endFill=0;" edge="1" parent="1" source="d2WEZ7_jx0w2NvavsIym-23" target="d2WEZ7_jx0w2NvavsIym-28">
          <mxGeometry relative="1" as="geometry">
            <Array as="points">
              <mxPoint x="220" y="660" />
              <mxPoint y="660" />
            </Array>
          </mxGeometry>
        </mxCell>
        <mxCell id="d2WEZ7_jx0w2NvavsIym-42" style="edgeStyle=orthogonalEdgeStyle;rounded=0;orthogonalLoop=1;jettySize=auto;html=1;entryX=0.5;entryY=1;entryDx=0;entryDy=0;endArrow=none;endFill=0;" edge="1" parent="1" source="d2WEZ7_jx0w2NvavsIym-23" target="d2WEZ7_jx0w2NvavsIym-27">
          <mxGeometry relative="1" as="geometry" />
        </mxCell>
        <mxCell id="d2WEZ7_jx0w2NvavsIym-43" style="edgeStyle=orthogonalEdgeStyle;rounded=0;orthogonalLoop=1;jettySize=auto;html=1;entryX=0.5;entryY=1;entryDx=0;entryDy=0;endArrow=none;endFill=0;" edge="1" parent="1" source="d2WEZ7_jx0w2NvavsIym-23" target="d2WEZ7_jx0w2NvavsIym-29">
          <mxGeometry relative="1" as="geometry">
            <Array as="points">
              <mxPoint x="220" y="660" />
              <mxPoint x="430" y="660" />
            </Array>
          </mxGeometry>
        </mxCell>
        <mxCell id="d2WEZ7_jx0w2NvavsIym-44" style="edgeStyle=orthogonalEdgeStyle;rounded=0;orthogonalLoop=1;jettySize=auto;html=1;endArrow=none;endFill=0;" edge="1" parent="1" source="d2WEZ7_jx0w2NvavsIym-23" target="d2WEZ7_jx0w2NvavsIym-16">
          <mxGeometry relative="1" as="geometry">
            <Array as="points">
              <mxPoint x="220" y="535" />
              <mxPoint x="270" y="535" />
              <mxPoint x="270" y="385" />
            </Array>
          </mxGeometry>
        </mxCell>
        <mxCell id="d2WEZ7_jx0w2NvavsIym-23" value="mant" style="rounded=0;whiteSpace=wrap;html=1;" vertex="1" parent="1">
          <mxGeometry x="160" y="670" width="120" height="60" as="geometry" />
        </mxCell>
        <mxCell id="d2WEZ7_jx0w2NvavsIym-24" value="real" style="rounded=0;whiteSpace=wrap;html=1;" vertex="1" parent="1">
          <mxGeometry x="160" y="770" width="120" height="60" as="geometry" />
        </mxCell>
        <mxCell id="d2WEZ7_jx0w2NvavsIym-25" value="d" style="rounded=0;whiteSpace=wrap;html=1;" vertex="1" parent="1">
          <mxGeometry x="80" y="320" width="120" height="50" as="geometry" />
        </mxCell>
        <mxCell id="d2WEZ7_jx0w2NvavsIym-33" style="edgeStyle=orthogonalEdgeStyle;rounded=0;orthogonalLoop=1;jettySize=auto;html=1;endArrow=none;endFill=0;" edge="1" parent="1" source="d2WEZ7_jx0w2NvavsIym-26" target="d2WEZ7_jx0w2NvavsIym-14">
          <mxGeometry relative="1" as="geometry" />
        </mxCell>
        <mxCell id="d2WEZ7_jx0w2NvavsIym-34" value="" style="edgeStyle=orthogonalEdgeStyle;rounded=0;orthogonalLoop=1;jettySize=auto;html=1;endArrow=none;endFill=0;" edge="1" parent="1" source="d2WEZ7_jx0w2NvavsIym-26" target="d2WEZ7_jx0w2NvavsIym-27">
          <mxGeometry relative="1" as="geometry" />
        </mxCell>
        <mxCell id="d2WEZ7_jx0w2NvavsIym-26" value="d" style="rounded=0;whiteSpace=wrap;html=1;" vertex="1" parent="1">
          <mxGeometry x="80" y="440" width="120" height="50" as="geometry" />
        </mxCell>
        <mxCell id="d2WEZ7_jx0w2NvavsIym-27" value="int" style="rounded=0;whiteSpace=wrap;html=1;" vertex="1" parent="1">
          <mxGeometry x="80" y="540" width="120" height="60" as="geometry" />
        </mxCell>
        <mxCell id="d2WEZ7_jx0w2NvavsIym-36" style="edgeStyle=orthogonalEdgeStyle;rounded=0;orthogonalLoop=1;jettySize=auto;html=1;endArrow=none;endFill=0;" edge="1" parent="1" source="d2WEZ7_jx0w2NvavsIym-28">
          <mxGeometry relative="1" as="geometry">
            <mxPoint y="420" as="targetPoint" />
          </mxGeometry>
        </mxCell>
        <mxCell id="d2WEZ7_jx0w2NvavsIym-28" value="sign" style="rounded=0;whiteSpace=wrap;html=1;" vertex="1" parent="1">
          <mxGeometry x="-60" y="540" width="120" height="60" as="geometry" />
        </mxCell>
        <mxCell id="d2WEZ7_jx0w2NvavsIym-39" style="edgeStyle=orthogonalEdgeStyle;rounded=0;orthogonalLoop=1;jettySize=auto;html=1;entryX=0.5;entryY=1;entryDx=0;entryDy=0;endArrow=none;endFill=0;" edge="1" parent="1" source="d2WEZ7_jx0w2NvavsIym-29" target="d2WEZ7_jx0w2NvavsIym-30">
          <mxGeometry relative="1" as="geometry" />
        </mxCell>
        <mxCell id="d2WEZ7_jx0w2NvavsIym-40" style="edgeStyle=orthogonalEdgeStyle;rounded=0;orthogonalLoop=1;jettySize=auto;html=1;entryX=0.5;entryY=1;entryDx=0;entryDy=0;endArrow=none;endFill=0;" edge="1" parent="1" source="d2WEZ7_jx0w2NvavsIym-29" target="d2WEZ7_jx0w2NvavsIym-31">
          <mxGeometry relative="1" as="geometry" />
        </mxCell>
        <mxCell id="d2WEZ7_jx0w2NvavsIym-29" value="frac" style="rounded=0;whiteSpace=wrap;html=1;" vertex="1" parent="1">
          <mxGeometry x="370" y="540" width="120" height="60" as="geometry" />
        </mxCell>
        <mxCell id="d2WEZ7_jx0w2NvavsIym-37" style="edgeStyle=orthogonalEdgeStyle;rounded=0;orthogonalLoop=1;jettySize=auto;html=1;entryX=0.5;entryY=1;entryDx=0;entryDy=0;endArrow=none;endFill=0;" edge="1" parent="1" source="d2WEZ7_jx0w2NvavsIym-30" target="d2WEZ7_jx0w2NvavsIym-32">
          <mxGeometry relative="1" as="geometry" />
        </mxCell>
        <mxCell id="d2WEZ7_jx0w2NvavsIym-30" value="frac" style="rounded=0;whiteSpace=wrap;html=1;" vertex="1" parent="1">
          <mxGeometry x="290" y="435" width="120" height="60" as="geometry" />
        </mxCell>
        <mxCell id="d2WEZ7_jx0w2NvavsIym-38" style="edgeStyle=orthogonalEdgeStyle;rounded=0;orthogonalLoop=1;jettySize=auto;html=1;endArrow=none;endFill=0;" edge="1" parent="1" source="d2WEZ7_jx0w2NvavsIym-31" target="d2WEZ7_jx0w2NvavsIym-17">
          <mxGeometry relative="1" as="geometry">
            <Array as="points">
              <mxPoint x="490" y="420" />
              <mxPoint x="440" y="420" />
            </Array>
          </mxGeometry>
        </mxCell>
        <mxCell id="d2WEZ7_jx0w2NvavsIym-31" value="d" style="rounded=0;whiteSpace=wrap;html=1;" vertex="1" parent="1">
          <mxGeometry x="430" y="435" width="120" height="60" as="geometry" />
        </mxCell>
        <mxCell id="d2WEZ7_jx0w2NvavsIym-32" value="&lt;span style=&quot;font-style: normal; font-variant-ligatures: normal; font-variant-caps: normal; font-weight: 400; letter-spacing: normal; orphans: 2; text-align: center; text-indent: 0px; text-transform: none; widows: 2; word-spacing: 0px; -webkit-text-stroke-width: 0px; white-space: normal; text-decoration-thickness: initial; text-decoration-style: initial; text-decoration-color: initial; float: none; display: inline !important;&quot;&gt;&lt;font style=&quot;font-size: 20px;&quot; face=&quot;Helvetica&quot;&gt;ϵ&lt;/font&gt;&lt;/span&gt;" style="text;whiteSpace=wrap;html=1;" vertex="1" parent="1">
          <mxGeometry x="337.5" y="376" width="25" height="32" as="geometry" />
        </mxCell>
        <mxCell id="d2WEZ7_jx0w2NvavsIym-35" value="&lt;span style=&quot;font-style: normal; font-variant-ligatures: normal; font-variant-caps: normal; font-weight: 400; letter-spacing: normal; orphans: 2; text-align: center; text-indent: 0px; text-transform: none; widows: 2; word-spacing: 0px; -webkit-text-stroke-width: 0px; white-space: normal; text-decoration-thickness: initial; text-decoration-style: initial; text-decoration-color: initial; float: none; display: inline !important;&quot;&gt;&lt;font style=&quot;font-size: 20px;&quot; face=&quot;Helvetica&quot;&gt;ϵ&lt;/font&gt;&lt;/span&gt;" style="text;whiteSpace=wrap;html=1;" vertex="1" parent="1">
          <mxGeometry x="-10" y="380" width="120" height="30" as="geometry" />
        </mxCell>
      </root>
    </mxGraphModel>
  </diagram>
</mxfile>
